# Blender v2.78 (sub 0) OBJ File: 'scene.blend'
# www.blender.org
mtllib crystal1.mtl
o crystal1_crystals_lp
v 0.000000 -0.005484 -0.288303
v 0.000000 1.925329 -0.351346
v 0.204079 -0.005484 -0.203770
v 0.248658 1.925329 -0.248349
v 0.288611 -0.005484 0.000308
v 0.351655 1.925329 0.000309
v 0.204079 -0.005484 0.204388
v 0.248658 1.925329 0.248967
v 0.000000 -0.005484 0.288920
v 0.000000 1.925329 0.351964
v -0.204079 -0.005484 0.204388
v -0.248658 1.925329 0.248967
v -0.288611 -0.005484 0.000308
v -0.351655 1.925329 0.000309
v -0.204079 -0.005484 -0.203770
v -0.248658 1.925329 -0.248349
v 0.000000 2.405374 0.000309
v 0.000000 -0.137365 0.000308
vt 0.1156 0.3976
vt 0.1347 0.0150
vt 0.1785 0.0167
vt 0.1689 0.3996
vt 0.1172 0.7838
vt 0.1172 0.8300
vt 0.0614 0.8069
vt 0.2633 0.7768
vt 0.3137 0.8272
vt 0.2277 0.8629
vt 0.3137 0.8985
vt 0.2633 0.9489
vt 0.1920 0.9489
vt 0.1416 0.8985
vt 0.1416 0.8272
vt 0.1920 0.7768
vt 0.0845 0.8628
vt 0.0382 0.8628
vt 0.0055 0.8300
vt 0.0055 0.7838
vt 0.0382 0.7511
vt 0.0845 0.7511
vt 0.2223 0.0172
vt 0.2223 0.4003
vt 0.2661 0.0167
vt 0.2756 0.3996
vt 0.3099 0.0150
vt 0.3290 0.3976
vt 0.3536 0.0123
vt 0.3823 0.3943
vt 0.3972 0.0085
vt 0.4354 0.3897
vt 0.0091 0.3897
vt 0.0473 0.0085
vt 0.0910 0.0123
vt 0.0623 0.3943
vn -0.3825 -0.0302 -0.9235
vn 0.1697 -0.8964 -0.4096
vn 0.3169 0.5605 -0.7651
vn -0.3169 0.5605 -0.7651
vn -0.7651 0.5605 -0.3169
vn -0.7651 0.5605 0.3169
vn -0.3169 0.5605 0.7651
vn 0.3169 0.5605 0.7651
vn 0.7651 0.5605 0.3169
vn 0.7651 0.5605 -0.3169
vn 0.4096 -0.8964 -0.1697
vn 0.4096 -0.8964 0.1697
vn 0.1697 -0.8964 0.4096
vn -0.1697 -0.8964 0.4096
vn -0.4096 -0.8964 0.1697
vn -0.4096 -0.8964 -0.1697
vn -0.1697 -0.8964 -0.4096
vn -0.9235 -0.0302 -0.3825
vn -0.9235 -0.0302 0.3825
vn -0.3825 -0.0302 0.9235
vn 0.3825 -0.0302 0.9235
vn 0.9235 -0.0302 0.3825
vn 0.9235 -0.0302 -0.3825
vn 0.3825 -0.0302 -0.9235
usemtl crystals
s off
f 2/1/1 1/2/1 15/3/1 16/4/1
f 1/5/2 3/6/2 18/7/2
f 4/8/3 2/9/3 17/10/3
f 2/9/4 16/11/4 17/10/4
f 16/11/5 14/12/5 17/10/5
f 14/12/6 12/13/6 17/10/6
f 12/13/7 10/14/7 17/10/7
f 10/14/8 8/15/8 17/10/8
f 8/15/9 6/16/9 17/10/9
f 6/16/10 4/8/10 17/10/10
f 3/6/11 5/17/11 18/7/11
f 5/17/12 7/18/12 18/7/12
f 7/18/13 9/19/13 18/7/13
f 9/19/14 11/20/14 18/7/14
f 11/20/15 13/21/15 18/7/15
f 13/21/16 15/22/16 18/7/16
f 15/22/17 1/5/17 18/7/17
f 16/4/18 15/3/18 13/23/18 14/24/18
f 14/24/19 13/23/19 11/25/19 12/26/19
f 12/26/20 11/25/20 9/27/20 10/28/20
f 10/28/21 9/27/21 7/29/21 8/30/21
f 8/30/22 7/29/22 5/31/22 6/32/22
f 6/33/23 5/34/23 3/35/23 4/36/23
f 1/2/24 2/1/24 4/36/24 3/35/24
