# Blender v2.78 (sub 0) OBJ File: 'scene.blend'
# www.blender.org
mtllib crystal4.mtl
o crystal4_crystals_lp.003
v 0.000000 -0.009063 -0.267686
v 0.000000 1.482029 -0.313618
v 0.231350 -0.009063 -0.134116
v 0.271129 1.482029 -0.157081
v 0.231350 -0.009063 0.133025
v 0.271129 1.482029 0.155992
v 0.000000 -0.009063 0.266596
v 0.000000 1.482029 0.312528
v -0.231350 -0.009063 0.133025
v -0.271129 1.482029 0.155992
v -0.231350 -0.009063 -0.134115
v -0.271129 1.482029 -0.157081
v 0.000000 1.844464 -0.000545
v 0.000000 -0.080524 -0.000545
vt 0.1109 0.9423
vt 0.0838 0.9893
vt 0.0567 0.9423
vt 0.4552 0.7961
vt 0.4953 0.8656
vt 0.4151 0.8656
vt 0.4552 0.9350
vt 0.3750 0.9350
vt 0.3349 0.8656
vt 0.3750 0.7961
vt 0.0296 0.9893
vt 0.0026 0.9423
vt 0.0296 0.8954
vt 0.0838 0.8954
vt 0.1410 0.4218
vt 0.1319 0.7175
vt 0.0699 0.7147
vt 0.0881 0.4194
vt 0.1940 0.4226
vt 0.1940 0.7185
vt 0.2470 0.4218
vt 0.2561 0.7175
vt 0.2999 0.4194
vt 0.3181 0.7147
vt 0.3527 0.4153
vt 0.3800 0.7099
vt 0.0080 0.7099
vt 0.0353 0.4153
vn 0.1476 -0.9555 -0.2556
vn 0.4004 0.5990 -0.6935
vn -0.4004 0.5990 -0.6935
vn -0.8007 0.5990 0.0000
vn -0.4004 0.5990 0.6935
vn 0.4004 0.5990 0.6935
vn 0.8007 0.5990 0.0000
vn 0.2951 -0.9555 -0.0000
vn 0.1476 -0.9555 0.2556
vn -0.1476 -0.9555 0.2556
vn -0.2951 -0.9555 -0.0000
vn -0.1476 -0.9555 -0.2556
vn -0.4998 -0.0267 -0.8657
vn -0.9996 -0.0267 -0.0000
vn -0.4998 -0.0267 0.8657
vn 0.4998 -0.0267 0.8657
vn 0.9996 -0.0267 -0.0000
vn 0.4998 -0.0267 -0.8657
usemtl crystals
s off
f 1/1/1 3/2/1 14/3/1
f 4/4/2 2/5/2 13/6/2
f 2/5/3 12/7/3 13/6/3
f 12/7/4 10/8/4 13/6/4
f 10/8/5 8/9/5 13/6/5
f 8/9/6 6/10/6 13/6/6
f 6/10/7 4/4/7 13/6/7
f 3/2/8 5/11/8 14/3/8
f 5/11/9 7/12/9 14/3/9
f 7/12/10 9/13/10 14/3/10
f 9/13/11 11/14/11 14/3/11
f 11/14/12 1/1/12 14/3/12
f 11/15/13 12/16/13 2/17/13 1/18/13
f 9/19/14 10/20/14 12/16/14 11/15/14
f 7/21/15 8/22/15 10/20/15 9/19/15
f 5/23/16 6/24/16 8/22/16 7/21/16
f 3/25/17 4/26/17 6/24/17 5/23/17
f 1/18/18 2/17/18 4/27/18 3/28/18
