# Blender v2.78 (sub 0) OBJ File: 'scene.blend'
# www.blender.org
mtllib goldbar1.mtl
o goldbar1_goldbars_lp
v -0.482842 -0.001121 1.008123
v -0.477401 0.026306 1.030064
v -0.505912 0.026536 1.001219
v -0.380555 0.557471 0.910532
v -0.375995 0.584898 0.876248
v -0.409150 0.557241 0.881791
v -0.482842 -0.001121 -1.008123
v -0.505912 0.026536 -1.001219
v -0.477401 0.026306 -1.030064
v -0.375995 0.584898 -0.876248
v -0.380555 0.557471 -0.910532
v -0.409150 0.557241 -0.881791
v 0.482842 -0.001121 1.008123
v 0.505912 0.026536 1.001219
v 0.477400 0.026306 1.030064
v 0.375995 0.584898 0.876248
v 0.380554 0.557471 0.910532
v 0.409150 0.557241 0.881791
v 0.482842 -0.001121 -1.008123
v 0.477400 0.026306 -1.030064
v 0.505912 0.026536 -1.001219
v 0.375995 0.584898 -0.876248
v 0.409150 0.557241 -0.881791
v 0.380554 0.557471 -0.910532
vt 0.7279 0.4435
vt 0.7056 0.5691
vt 0.5300 0.5691
vt 0.5077 0.4435
vt 0.8954 0.7916
vt 0.8737 0.9198
vt 0.4689 0.9156
vt 0.4522 0.7908
vt 0.4197 0.6280
vt 0.4196 0.8015
vt 0.0155 0.8013
vt 0.0155 0.6279
vt 0.4530 0.7660
vt 0.4748 0.6378
vt 0.8796 0.6420
vt 0.8962 0.7668
vt 0.5078 0.3793
vt 0.5301 0.2537
vt 0.7056 0.2537
vt 0.7280 0.3793
vt 0.4496 0.7747
vt 0.4429 0.7670
vt 0.4649 0.6347
vt 0.4744 0.6273
vt 0.8994 0.7748
vt 0.9057 0.7678
vt 0.8803 0.6311
vt 0.8895 0.6392
vt 0.4491 0.7828
vt 0.4427 0.7898
vt 0.4681 0.9265
vt 0.4589 0.9184
vt 0.8989 0.7829
vt 0.9055 0.7906
vt 0.8741 0.9303
vt 0.8835 0.9229
vt 0.7292 0.3874
vt 0.5065 0.3874
vt 0.5312 0.2436
vt 0.7046 0.2436
vt 0.5064 0.4354
vt 0.7292 0.4354
vt 0.7045 0.5792
vt 0.5311 0.5792
vt 0.4820 0.0107
vt 0.4820 0.2334
vt 0.0170 0.2334
vt 0.0170 0.0107
vn 0.3573 -0.1537 0.9213
vn 0.3082 0.5154 0.7996
vn -0.3082 0.5154 0.7996
vn -0.3573 -0.1537 0.9213
vn 0.9194 -0.1687 -0.3554
vn 0.8127 0.4984 -0.3017
vn 0.8127 0.4984 0.3017
vn 0.9194 -0.1687 0.3554
vn 0.2952 0.9117 -0.2858
vn -0.2952 0.9117 -0.2858
vn -0.2952 0.9117 0.2858
vn 0.2952 0.9117 0.2858
vn -0.9194 -0.1687 0.3554
vn -0.8127 0.4984 0.3017
vn -0.8127 0.4984 -0.3017
vn -0.9194 -0.1687 -0.3554
vn -0.3573 -0.1537 -0.9213
vn -0.3082 0.5154 -0.7996
vn 0.3082 0.5154 -0.7996
vn 0.3573 -0.1537 -0.9213
vn -0.3989 -0.8222 0.4060
vn -0.3989 -0.8222 -0.4060
vn 0.3989 -0.8222 0.4060
vn 0.3989 -0.8222 -0.4060
usemtl goldbars
s 1
f 15/1/1 17/2/2 4/3/3 2/4/4
f 21/5/5 23/6/6 18/7/7 14/8/8
f 22/9/9 10/10/10 5/11/11 16/12/12
f 3/13/13 6/14/14 12/15/15 8/16/16
f 9/17/17 11/18/18 24/19/19 20/20/20
f 1/21/21 2/22/4 3/13/13
f 4/23/3 5/24/11 6/14/14
f 7/25/22 8/16/16 9/26/17
f 10/27/10 11/28/18 12/15/15
f 13/29/23 14/8/8 15/30/1
f 16/31/12 17/32/2 18/7/7
f 19/33/24 20/34/20 21/5/5
f 22/35/9 23/6/6 24/36/19
f 7/25/22 1/21/21 3/13/13 8/16/16
f 2/22/4 4/23/3 6/14/14 3/13/13
f 5/24/11 10/27/10 12/15/15 6/14/14
f 11/28/18 9/26/17 8/16/16 12/15/15
f 19/37/24 7/38/22 9/17/17 20/20/20
f 10/39/10 22/40/9 24/19/19 11/18/18
f 23/6/6 21/5/5 20/34/20 24/36/19
f 13/29/23 19/33/24 21/5/5 14/8/8
f 22/35/9 16/31/12 18/7/7 23/6/6
f 17/32/2 15/30/1 14/8/8 18/7/7
f 1/41/21 13/42/23 15/1/1 2/4/4
f 16/43/12 5/44/11 4/3/3 17/2/2
f 7/45/22 19/46/24 13/47/23 1/48/21
